<svg width="19" height="19" viewBox="0 0 19 19" fill="none" xmlns="http://www.w3.org/2000/svg">
<path d="M17.531 18.2015L11.2157 11.8862C10.7145 12.2871 10.1381 12.6046 9.48656 12.8385C8.83498 13.0724 8.14164 13.1893 7.40652 13.1893C5.58545 13.1893 4.04438 12.5588 2.78333 11.2977C1.52161 10.036 0.890747 8.49463 0.890747 6.67355C0.890747 4.85248 1.52161 3.31108 2.78333 2.04936C4.04438 0.788303 5.58545 0.157776 7.40652 0.157776C9.2276 0.157776 10.769 0.788303 12.0307 2.04936C13.2918 3.31108 13.9223 4.85248 13.9223 6.67355C13.9223 7.40867 13.8054 8.10201 13.5715 8.75359C13.3376 9.40517 13.0201 9.98156 12.6191 10.4828L18.9344 16.7981L17.531 18.2015ZM7.40652 11.1845C8.65956 11.1845 9.7248 10.7461 10.6023 9.86929C11.4791 8.99183 11.9174 7.92659 11.9174 6.67355C11.9174 5.42052 11.4791 4.35527 10.6023 3.47781C9.7248 2.60102 8.65956 2.16263 7.40652 2.16263C6.15349 2.16263 5.08824 2.60102 4.21079 3.47781C3.334 4.35527 2.8956 5.42052 2.8956 6.67355C2.8956 7.92659 3.334 8.99183 4.21079 9.86929C5.08824 10.7461 6.15349 11.1845 7.40652 11.1845Z" fill="white"/>
</svg>
