<svg width="24" height="24" viewBox="0 0 24 24" fill="none" xmlns="http://www.w3.org/2000/svg">
<g filter="url(#filter0_d_1_1156)">
<mask id="mask0_1_1156" style="mask-type:alpha" maskUnits="userSpaceOnUse" x="4" y="0" width="16" height="16">
<rect x="4" width="16" height="16" fill="#D9D9D9"/>
</mask>
<g mask="url(#mask0_1_1156)">
<mask id="mask1_1_1156" style="mask-type:alpha" maskUnits="userSpaceOnUse" x="4" y="0" width="17" height="17">
<rect x="4.00171" y="0.131775" width="16" height="16" fill="#D9D9D9"/>
</mask>
<g mask="url(#mask1_1_1156)">
<path d="M15.4684 10.1818C15.3017 10.1151 15.1795 9.99555 15.1017 9.82311C15.0239 9.65111 15.0184 9.48178 15.085 9.31511C15.1628 9.12622 15.2184 8.92889 15.2517 8.72311C15.285 8.51778 15.3017 8.28178 15.3017 8.01511C15.3017 7.18178 14.985 6.44 14.3517 5.78978C13.7184 5.14 12.9684 4.81511 12.1017 4.81511C11.8795 4.81511 11.6602 4.83178 11.4437 4.86511C11.2268 4.89844 11.0128 4.95955 10.8017 5.04844C10.6239 5.12622 10.4517 5.12622 10.285 5.04844C10.1184 4.97066 10.0017 4.84289 9.93504 4.66511C9.86838 4.48733 9.87126 4.31511 9.94371 4.14844C10.0157 3.98178 10.1406 3.86511 10.3184 3.79844C10.6073 3.68733 10.8962 3.60666 11.185 3.55644C11.4739 3.50666 11.7795 3.48178 12.1017 3.48178C13.3573 3.48178 14.4266 3.92622 15.3097 4.81511C16.1933 5.704 16.635 6.77066 16.635 8.01511C16.635 8.37066 16.6157 8.68733 16.577 8.96511C16.5379 9.24289 16.4628 9.52622 16.3517 9.81511C16.285 9.98178 16.1657 10.0984 15.9937 10.1651C15.8213 10.2318 15.6462 10.2373 15.4684 10.1818ZM12.0017 12.7984C10.7017 12.7984 9.59904 12.3456 8.69371 11.4398C7.78793 10.5344 7.33504 9.43178 7.33504 8.13177C7.33504 7.67622 7.40438 7.218 7.54304 6.75711C7.68215 6.29577 7.89615 5.85955 8.18504 5.44844C8.2406 5.35955 8.31571 5.29 8.41038 5.23978C8.5046 5.19 8.60171 5.16511 8.70171 5.16511C8.82393 5.154 8.94349 5.18178 9.06038 5.24844C9.17682 5.31511 9.26282 5.404 9.31838 5.51511C9.9406 6.64844 10.7017 7.66222 11.6017 8.55644C12.5017 9.45111 13.5184 10.1984 14.6517 10.7984C14.7517 10.854 14.8322 10.9289 14.893 11.0231C14.9544 11.1178 14.9906 11.2262 15.0017 11.3484C15.0128 11.4596 14.9906 11.5651 14.935 11.6651C14.8795 11.7651 14.8073 11.8484 14.7184 11.9151C14.3073 12.204 13.8713 12.4236 13.4104 12.5738C12.949 12.7236 12.4795 12.7984 12.0017 12.7984ZM12.0017 11.4651C12.1573 11.4651 12.3102 11.4567 12.4604 11.4398C12.6102 11.4233 12.7684 11.3873 12.935 11.3318C12.1017 10.7984 11.3406 10.1873 10.6517 9.49844C9.96282 8.80955 9.34615 8.054 8.80171 7.23177C8.75726 7.38733 8.72393 7.53733 8.70171 7.68178C8.67949 7.82622 8.66838 7.97622 8.66838 8.13177C8.66838 9.07622 8.99904 9.86511 9.66038 10.4984C10.3213 11.1318 11.1017 11.454 12.0017 11.4651ZM12.0017 2.13177C11.8128 2.13177 11.6546 2.06777 11.527 1.93977C11.399 1.81222 11.335 1.654 11.335 1.46511V0.798442C11.335 0.609553 11.399 0.451108 11.527 0.323108C11.6546 0.195553 11.8128 0.131775 12.0017 0.131775C12.1906 0.131775 12.349 0.195553 12.477 0.323108C12.6046 0.451108 12.6684 0.609553 12.6684 0.798442V1.46511C12.6684 1.654 12.6046 1.81222 12.477 1.93977C12.349 2.06777 12.1906 2.13177 12.0017 2.13177ZM12.0017 16.1318C11.8128 16.1318 11.6546 16.0678 11.527 15.9398C11.399 15.8122 11.335 15.654 11.335 15.4651V14.7984C11.335 14.6096 11.399 14.4513 11.527 14.3238C11.6546 14.1958 11.8128 14.1318 12.0017 14.1318C12.1906 14.1318 12.349 14.1958 12.477 14.3238C12.6046 14.4513 12.6684 14.6096 12.6684 14.7984V15.4651C12.6684 15.654 12.6046 15.8122 12.477 15.9398C12.349 16.0678 12.1906 16.1318 12.0017 16.1318ZM16.235 3.88177C16.1017 3.74844 16.035 3.59 16.035 3.40644C16.035 3.22333 16.1017 3.06511 16.235 2.93177L16.7017 2.46511C16.835 2.33177 16.9962 2.26511 17.185 2.26511C17.3739 2.26511 17.535 2.33177 17.6684 2.46511C17.8017 2.59844 17.8657 2.75666 17.8604 2.93977C17.8546 3.12333 17.785 3.28178 17.6517 3.41511L17.185 3.88177C17.0517 4.01511 16.8933 4.08178 16.7097 4.08178C16.5266 4.08178 16.3684 4.01511 16.235 3.88177ZM6.35171 13.7818C6.21838 13.6484 6.15171 13.4902 6.15171 13.3071C6.15171 13.1236 6.21838 12.9651 6.35171 12.8318L6.81838 12.3651C6.9406 12.2429 7.0906 12.1818 7.26838 12.1818C7.44615 12.1818 7.60171 12.2429 7.73504 12.3651C7.86838 12.4873 7.9406 12.6429 7.95171 12.8318C7.96282 13.0207 7.90171 13.1818 7.76838 13.3151L7.30171 13.7818C7.16838 13.9151 7.01015 13.9818 6.82704 13.9818C6.64349 13.9818 6.48504 13.9151 6.35171 13.7818ZM18.6684 8.79844C18.4795 8.79844 18.3213 8.73444 18.1937 8.60644C18.0657 8.47889 18.0017 8.32066 18.0017 8.13177C18.0017 7.94289 18.0657 7.78444 18.1937 7.65644C18.3213 7.52889 18.4795 7.46511 18.6684 7.46511H19.335C19.5239 7.46511 19.6822 7.52889 19.8097 7.65644C19.9377 7.78444 20.0017 7.94289 20.0017 8.13177C20.0017 8.32066 19.9377 8.47889 19.8097 8.60644C19.6822 8.73444 19.5239 8.79844 19.335 8.79844H18.6684ZM4.66838 8.79844C4.47949 8.79844 4.32126 8.73444 4.19371 8.60644C4.06571 8.47889 4.00171 8.32066 4.00171 8.13177C4.00171 7.94289 4.06571 7.78444 4.19371 7.65644C4.32126 7.52889 4.47949 7.46511 4.66838 7.46511H5.33504C5.52393 7.46511 5.68238 7.52889 5.81038 7.65644C5.93793 7.78444 6.00171 7.94289 6.00171 8.13177C6.00171 8.32066 5.93793 8.47889 5.81038 8.60644C5.68238 8.73444 5.52393 8.79844 5.33504 8.79844H4.66838ZM16.7017 13.7818L16.235 13.3151C16.1128 13.1929 16.0517 13.0429 16.0517 12.8651C16.0517 12.6873 16.1128 12.5318 16.235 12.3984C16.3573 12.2651 16.5128 12.1929 16.7017 12.1818C16.8906 12.1707 17.0517 12.2318 17.185 12.3651L17.6517 12.8318C17.785 12.9651 17.849 13.1207 17.8437 13.2984C17.8379 13.4762 17.7739 13.6318 17.6517 13.7651C17.5295 13.8984 17.3739 13.9678 17.185 13.9731C16.9962 13.9789 16.835 13.9151 16.7017 13.7818ZM6.81838 3.88177L6.35171 3.41511C6.21838 3.28178 6.15438 3.12889 6.15971 2.95644C6.16549 2.78444 6.22949 2.63177 6.35171 2.49844C6.47393 2.36511 6.62949 2.29289 6.81838 2.28177C7.00726 2.27066 7.16838 2.33177 7.30171 2.46511L7.76838 2.93177C7.90171 3.06511 7.96838 3.22333 7.96838 3.40644C7.96838 3.59 7.90171 3.74844 7.76838 3.88177C7.63504 4.01511 7.47682 4.08178 7.29371 4.08178C7.11015 4.08178 6.95171 4.01511 6.81838 3.88177Z" fill="#1C1B1F"/>
</g>
</g>
</g>
<defs>
<filter id="filter0_d_1_1156" x="0.00170898" y="0.131775" width="23.9983" height="23.8682" filterUnits="userSpaceOnUse" color-interpolation-filters="sRGB">
<feFlood flood-opacity="0" result="BackgroundImageFix"/>
<feColorMatrix in="SourceAlpha" type="matrix" values="0 0 0 0 0 0 0 0 0 0 0 0 0 0 0 0 0 0 127 0" result="hardAlpha"/>
<feOffset dy="4"/>
<feGaussianBlur stdDeviation="2"/>
<feComposite in2="hardAlpha" operator="out"/>
<feColorMatrix type="matrix" values="0 0 0 0 0 0 0 0 0 0 0 0 0 0 0 0 0 0 0.25 0"/>
<feBlend mode="normal" in2="BackgroundImageFix" result="effect1_dropShadow_1_1156"/>
<feBlend mode="normal" in="SourceGraphic" in2="effect1_dropShadow_1_1156" result="shape"/>
</filter>
</defs>
</svg>
