<svg width="16" height="16" viewBox="0 0 16 16" fill="none" xmlns="http://www.w3.org/2000/svg">
<mask id="mask0_1_733" style="mask-type:alpha" maskUnits="userSpaceOnUse" x="0" y="0" width="16" height="16">
<rect width="16" height="16" fill="#D9D9D9"/>
</mask>
<g mask="url(#mask0_1_733)">
<path d="M9.30004 14.6C9.13337 14.6889 8.96404 14.7027 8.79204 14.6413C8.6196 14.5805 8.48893 14.4667 8.40004 14.3L7.40004 12.3C7.31115 12.1333 7.29737 11.964 7.35871 11.792C7.4196 11.6196 7.53337 11.4889 7.70004 11.4C7.86671 11.3111 8.03604 11.2973 8.20804 11.3587C8.38048 11.4196 8.51115 11.5333 8.60004 11.7L9.60004 13.7C9.68893 13.8667 9.70293 14.036 9.64204 14.208C9.58071 14.3805 9.46671 14.5111 9.30004 14.6ZM13.3 14.6C13.1334 14.6889 12.964 14.7027 12.792 14.6413C12.6196 14.5805 12.4889 14.4667 12.4 14.3L11.4 12.3C11.3112 12.1333 11.2974 11.964 11.3587 11.792C11.4196 11.6196 11.5334 11.4889 11.7 11.4C11.8667 11.3111 12.036 11.2973 12.208 11.3587C12.3805 11.4196 12.5112 11.5333 12.6 11.7L13.6 13.7C13.6889 13.8667 13.7029 14.036 13.642 14.208C13.5807 14.3805 13.4667 14.5111 13.3 14.6ZM5.30004 14.6C5.13337 14.6889 4.96404 14.7027 4.79204 14.6413C4.6196 14.5805 4.48893 14.4667 4.40004 14.3L3.40004 12.3C3.31115 12.1333 3.29737 11.964 3.35871 11.792C3.4196 11.6196 3.53337 11.4889 3.70004 11.4C3.86671 11.3111 4.03604 11.2973 4.20804 11.3587C4.38048 11.4196 4.51115 11.5333 4.60004 11.7L5.60004 13.7C5.68893 13.8667 5.70293 14.036 5.64204 14.208C5.58071 14.3805 5.46671 14.5111 5.30004 14.6ZM5.00004 10.6667C3.98893 10.6667 3.12515 10.3082 2.40871 9.59134C1.69182 8.8749 1.33337 8.01112 1.33337 7.00001C1.33337 6.07779 1.63893 5.27223 2.25004 4.58334C2.86115 3.89445 3.61671 3.4889 4.51671 3.36668C4.87226 2.73334 5.35849 2.23601 5.97537 1.87468C6.59182 1.51379 7.26671 1.33334 8.00004 1.33334C9.00004 1.33334 9.86937 1.6529 10.608 2.29201C11.3472 2.93068 11.7945 3.72779 11.95 4.68334C12.7167 4.75001 13.3612 5.06668 13.8834 5.63334C14.4056 6.20001 14.6667 6.87779 14.6667 7.66668C14.6667 8.50001 14.3752 9.20845 13.792 9.79201C13.2085 10.3751 12.5 10.6667 11.6667 10.6667H5.00004ZM5.00004 9.33334H11.6667C12.1334 9.33334 12.5278 9.17223 12.85 8.85001C13.1723 8.52779 13.3334 8.13334 13.3334 7.66668C13.3334 7.20001 13.1723 6.80557 12.85 6.48334C12.5278 6.16112 12.1334 6.00001 11.6667 6.00001H10.6667V5.33334C10.6667 4.60001 10.4056 3.97223 9.88337 3.45001C9.36115 2.92779 8.73337 2.66668 8.00004 2.66668C7.46671 2.66668 6.98048 2.81112 6.54137 3.10001C6.10271 3.3889 5.77226 3.77779 5.55004 4.26668L5.38337 4.66668H4.96671C4.33337 4.6889 3.79182 4.9249 3.34204 5.37468C2.89182 5.8249 2.66671 6.36668 2.66671 7.00001C2.66671 7.64445 2.89449 8.19446 3.35004 8.65001C3.8056 9.10557 4.3556 9.33334 5.00004 9.33334Z" fill="#1C1B1F"/>
</g>
</svg>
